<svg width="80" height="208" viewBox="0 0 80 208" fill="none" xmlns="http://www.w3.org/2000/svg">
<rect x="0.5" y="0.5" width="79" height="207" rx="4.5" fill="white"/>
<rect x="0.5" y="0.5" width="79" height="207" rx="4.5" stroke="#9747FF" stroke-dasharray="10 5"/>
<path fill-rule="evenodd" clip-rule="evenodd" d="M28.0001 22.3947L26.7417 24.9447C26.5924 25.247 26.3717 25.5086 26.0989 25.7068C25.826 25.905 25.5091 26.0339 25.1753 26.0824L22.3589 26.4941L24.3957 28.477L23.9319 28.9535L24.3958 28.4771C24.6377 28.7126 24.8186 29.0035 24.923 29.3246C25.0274 29.6456 25.0522 29.9873 24.9951 30.32C24.9951 30.32 24.9951 30.3201 24.9951 30.3201L24.5148 33.1216L27.0321 31.7978C27.3306 31.6411 27.6626 31.5592 27.9997 31.5592C28.3368 31.5592 28.6688 31.6411 28.9673 31.7978L31.4859 33.122L31.005 30.3195L31.0049 30.319C30.9481 29.9864 30.9729 29.645 31.0773 29.3242C31.1817 29.0034 31.3625 28.7127 31.6041 28.4773L33.6402 26.4945L30.8232 26.0823C30.4899 26.0334 30.1734 25.9043 29.901 25.7062C29.6286 25.508 29.4083 25.2467 29.259 24.9447L28.0001 22.3947ZM23.4657 29.4324C23.4656 29.4324 23.4656 29.4323 23.4656 29.4323L20.9769 27.0096C20.9765 27.0092 20.976 27.0087 20.9756 27.0083C20.8389 26.8758 20.7419 26.7076 20.6958 26.5228C20.6496 26.3374 20.6563 26.1428 20.7153 25.9611C20.7743 25.7793 20.8831 25.6178 21.0294 25.4949C21.1752 25.3724 21.3523 25.2932 21.5408 25.2662L24.9834 24.763C25.1033 24.7455 25.2172 24.6992 25.3153 24.628C25.4134 24.5567 25.4926 24.4628 25.5463 24.3541L27.0859 21.2343C27.1702 21.0639 27.3005 20.9205 27.462 20.8202C27.6236 20.7199 27.8099 20.6668 28 20.6668C28.1902 20.6668 28.3765 20.7199 28.538 20.8202C28.6996 20.9205 28.8298 21.0639 28.9142 21.2343L30.4544 24.354C30.508 24.4626 30.5873 24.5566 30.6852 24.6279C30.7832 24.6991 30.897 24.7455 31.0168 24.7631L34.4596 25.2669C34.4599 25.267 34.4601 25.267 34.4604 25.267C34.4605 25.2671 34.4605 25.2671 34.4606 25.2671C34.6486 25.2945 34.8252 25.3739 34.9706 25.4963C35.1161 25.619 35.2245 25.7799 35.2834 25.9609C35.3422 26.1419 35.3493 26.3358 35.3037 26.5206C35.2581 26.7055 35.1617 26.8738 35.0254 27.0067L32.5346 29.4322C32.4478 29.5168 32.3827 29.6214 32.3452 29.7367C32.3077 29.852 32.2988 29.9747 32.3191 30.0943C32.3192 30.0943 32.3192 30.0944 32.3192 30.0944L32.9065 33.5174C32.9067 33.5181 32.9068 33.5187 32.9069 33.5194C32.9396 33.7071 32.9192 33.9002 32.8478 34.0769C32.7762 34.2542 32.6562 34.4077 32.5015 34.5201C32.3468 34.6325 32.1636 34.6991 31.9729 34.7124C31.7829 34.7256 31.593 34.6853 31.4247 34.5962C31.424 34.5959 31.4234 34.5955 31.4227 34.5952L28.3474 32.9783C28.2402 32.922 28.1208 32.8925 27.9997 32.8925C27.8786 32.8925 27.7592 32.922 27.652 32.9783C27.652 32.9783 27.652 32.9783 27.652 32.9783L24.5759 34.5959C24.5756 34.5961 24.5752 34.5963 24.5749 34.5965C24.4064 34.6854 24.2164 34.7254 24.0264 34.7119C23.836 34.6983 23.6532 34.6316 23.4988 34.5193C23.3444 34.4071 23.2246 34.2537 23.1531 34.0767C23.0817 33.9002 23.0612 33.7073 23.0938 33.5198C23.0939 33.5193 23.094 33.5187 23.0941 33.5182L23.681 30.0947C23.7015 29.9751 23.6926 29.8523 23.6551 29.7369C23.6176 29.6215 23.5526 29.517 23.4657 29.4324Z" fill="#212121"/>
<path fill-rule="evenodd" clip-rule="evenodd" d="M32.0001 67.592L30.1126 71.417C29.8885 71.8705 29.5576 72.2628 29.1483 72.5601C28.739 72.8574 28.2636 73.0508 27.763 73.1236L23.5383 73.7412L26.5936 76.7155L25.8978 77.4302L26.5937 76.7156C26.9565 77.069 27.228 77.5052 27.3846 77.9869C27.5412 78.4684 27.5783 78.9809 27.4927 79.48C27.4927 79.48 27.4927 79.4801 27.4926 79.4801L26.7722 83.6824L30.5482 81.6967C30.9958 81.4616 31.4939 81.3388 31.9995 81.3388C32.5052 81.3388 33.0033 81.4616 33.4509 81.6967L37.2288 83.683L36.5075 79.4792L36.5073 79.4785C36.4221 78.9796 36.4594 78.4675 36.6159 77.9863C36.7725 77.505 37.0437 77.0691 37.4061 76.7159L40.4603 73.7418L36.2348 73.1234C35.7349 73.0501 35.2602 72.8565 34.8515 72.5592C34.4428 72.262 34.1124 71.8701 33.8885 71.417L32.0001 67.592ZM25.1985 78.1486C25.1985 78.1485 25.1984 78.1485 25.1984 78.1485L21.4653 74.5143C21.4647 74.5137 21.4641 74.5131 21.4634 74.5125C21.2583 74.3137 21.1129 74.0614 21.0437 73.7842C20.9744 73.5061 20.9845 73.2142 21.073 72.9416C21.1614 72.669 21.3246 72.4267 21.5441 72.2424C21.7628 72.0586 22.0285 71.9398 22.3112 71.8993L27.4751 71.1445C27.655 71.1183 27.8258 71.0488 27.9729 70.9419C28.12 70.8351 28.239 70.6941 28.3195 70.5311L30.6288 65.8514C30.7553 65.5959 30.9508 65.3807 31.193 65.2303C31.4353 65.0799 31.7149 65.0002 32 65.0002C32.2852 65.0002 32.5647 65.0799 32.807 65.2303C33.0493 65.3807 33.2448 65.5959 33.3713 65.8514L35.6816 70.531C35.7621 70.6939 35.8809 70.8349 36.0278 70.9418C36.1748 71.0486 36.3455 71.1183 36.5253 71.1446L41.6894 71.9004C41.6898 71.9004 41.6902 71.9005 41.6906 71.9006C41.6907 71.9006 41.6908 71.9006 41.6908 71.9006C41.9729 71.9417 42.2379 72.0608 42.4558 72.2445C42.6742 72.4285 42.8367 72.6699 42.925 72.9414C43.0133 73.2129 43.0239 73.5037 42.9555 73.7809C42.8872 74.0582 42.7426 74.3107 42.5382 74.51L38.802 78.1482C38.6716 78.2752 38.5741 78.432 38.5178 78.6051C38.4615 78.778 38.4481 78.9621 38.4787 79.1414C38.4787 79.1415 38.4787 79.1415 38.4788 79.1416L39.3598 84.2761C39.36 84.2771 39.3602 84.2781 39.3603 84.2791C39.4095 84.5606 39.3788 84.8503 39.2718 85.1153C39.1643 85.3812 38.9843 85.6116 38.7523 85.7801C38.5202 85.9487 38.2454 86.0486 37.9593 86.0685C37.6743 86.0884 37.3895 86.028 37.137 85.8943C37.136 85.8938 37.1351 85.8933 37.1341 85.8927L32.5212 83.4674C32.3603 83.3829 32.1813 83.3388 31.9995 83.3388C31.8178 83.3388 31.6388 83.3829 31.478 83.4674C31.478 83.4674 31.4779 83.4674 31.4779 83.4674L26.8639 85.8938C26.8634 85.8941 26.8628 85.8944 26.8623 85.8947C26.6096 86.0281 26.3246 86.088 26.0396 86.0678C25.754 86.0475 25.4798 85.9474 25.2482 85.779C25.0166 85.6106 24.8369 85.3805 24.7296 85.115C24.6226 84.8503 24.5918 84.561 24.6407 84.2797C24.6408 84.2789 24.6409 84.2781 24.6411 84.2772L25.5214 79.142C25.5522 78.9626 25.5389 78.7784 25.4826 78.6053C25.4263 78.4323 25.3288 78.2755 25.1985 78.1486Z" fill="#212121"/>
<path fill-rule="evenodd" clip-rule="evenodd" d="M36.0002 112.789L33.4835 117.889C33.1847 118.494 32.7435 119.017 32.1978 119.413C31.652 119.81 31.0182 120.068 30.3507 120.165L24.7177 120.988L28.7915 124.954L27.8638 125.907L28.7916 124.954C29.2754 125.425 29.6373 126.007 29.8461 126.649C30.0549 127.291 30.1044 127.975 29.9902 128.64C29.9902 128.64 29.9902 128.64 29.9902 128.64L29.0297 134.243L34.0642 131.596C34.6611 131.282 35.3252 131.118 35.9994 131.118C36.6736 131.118 37.3377 131.282 37.9346 131.596L42.9717 134.244L42.0099 128.639L42.0098 128.638C41.8961 127.973 41.9458 127.29 42.1546 126.648C42.3634 126.007 42.7249 125.425 43.2082 124.954L47.2804 120.989L41.6464 120.165C40.9798 120.067 40.3469 119.809 39.802 119.412C39.2571 119.016 38.8165 118.493 38.518 117.889L36.0002 112.789ZM26.9313 126.865C26.9313 126.865 26.9312 126.865 26.9312 126.865L21.9538 122.019C21.9529 122.018 21.9521 122.017 21.9512 122.017C21.6777 121.752 21.4839 121.415 21.3917 121.046C21.2992 120.675 21.3127 120.286 21.4306 119.922C21.5485 119.559 21.7662 119.236 22.0588 118.99C22.3503 118.745 22.7047 118.586 23.0816 118.532L29.9668 117.526C30.2067 117.491 30.4345 117.398 30.6306 117.256C30.8267 117.113 30.9853 116.925 31.0927 116.708L34.1718 110.469C34.3404 110.128 34.601 109.841 34.9241 109.64C35.2471 109.44 35.6198 109.334 36.0001 109.334C36.3803 109.334 36.753 109.44 37.0761 109.64C37.3991 109.841 37.6597 110.128 37.8284 110.469L40.9088 116.708C41.0161 116.925 41.1745 117.113 41.3705 117.256C41.5664 117.398 41.794 117.491 42.0337 117.526L48.9192 118.534C48.9198 118.534 48.9203 118.534 48.9208 118.534C48.9209 118.534 48.921 118.534 48.9211 118.534C49.2972 118.589 49.6505 118.748 49.9411 118.993C50.2323 119.238 50.449 119.56 50.5667 119.922C50.6845 120.284 50.6985 120.672 50.6074 121.041C50.5162 121.411 50.3234 121.748 50.0509 122.013L45.0693 126.864C44.8955 127.034 44.7655 127.243 44.6904 127.473C44.6154 127.704 44.5975 127.949 44.6383 128.188C44.6383 128.189 44.6383 128.189 44.6383 128.189L45.8131 135.035C45.8133 135.036 45.8135 135.037 45.8138 135.039C45.8793 135.414 45.8384 135.8 45.6957 136.154C45.5524 136.508 45.3124 136.815 45.003 137.04C44.6936 137.265 44.3273 137.398 43.9458 137.425C43.5658 137.451 43.186 137.371 42.8494 137.192C42.8481 137.192 42.8468 137.191 42.8455 137.19L36.6949 133.957C36.4804 133.844 36.2417 133.785 35.9994 133.785C35.7571 133.785 35.5185 133.844 35.3039 133.957C35.3039 133.957 35.3039 133.957 35.3039 133.957L29.1519 137.192C29.1512 137.192 29.1505 137.193 29.1498 137.193C28.8128 137.371 28.4328 137.451 28.0528 137.424C27.6719 137.397 27.3063 137.263 26.9976 137.039C26.6888 136.814 26.4492 136.507 26.3061 136.153C26.1634 135.8 26.1224 135.415 26.1875 135.04C26.1877 135.039 26.1879 135.037 26.1881 135.036L27.3619 128.189C27.4029 127.95 27.3852 127.705 27.3101 127.474C27.2351 127.243 27.1051 127.034 26.9313 126.865Z" fill="#212121"/>
<path fill-rule="evenodd" clip-rule="evenodd" d="M40.0002 157.987L36.8543 164.362C36.4809 165.118 35.9294 165.771 35.2472 166.267C34.565 166.762 33.7727 167.085 32.9383 167.206L25.8972 168.235L30.9893 173.193L29.8297 174.384L30.9895 173.193C31.5942 173.782 32.0466 174.509 32.3076 175.311C32.5686 176.114 32.6304 176.968 32.4878 177.8C32.4878 177.8 32.4878 177.8 32.4878 177.8L31.2871 184.804L37.5803 181.494C38.3264 181.103 39.1565 180.898 39.9992 180.898C40.842 180.898 41.6721 181.103 42.4182 181.494L48.7147 184.805L47.5124 177.799L47.5122 177.797C47.3702 176.966 47.4323 176.113 47.6932 175.31C47.9542 174.508 48.4062 173.782 49.0102 173.193L54.1005 168.236L47.058 167.206C46.2248 167.083 45.4336 166.761 44.7525 166.265C44.0714 165.77 43.5206 165.117 43.1475 164.362L40.0002 157.987ZM28.6642 175.581C28.6641 175.581 28.664 175.581 28.664 175.581L22.4422 169.524C22.4412 169.523 22.4401 169.522 22.4391 169.521C22.0972 169.189 21.8548 168.769 21.7396 168.307C21.624 167.844 21.6408 167.357 21.7883 166.903C21.9357 166.448 22.2077 166.045 22.5734 165.737C22.9379 165.431 23.3808 165.233 23.852 165.166L32.4585 163.907C32.7583 163.864 33.0431 163.748 33.2882 163.57C33.5334 163.392 33.7316 163.157 33.8658 162.885L37.7147 155.086C37.9255 154.66 38.2513 154.301 38.6551 154.05C39.0589 153.8 39.5248 153.667 40.0001 153.667C40.4754 153.667 40.9412 153.8 41.3451 154.05C41.7489 154.301 42.0746 154.66 42.2855 155.086L46.1359 162.885C46.2701 163.157 46.4681 163.391 46.7131 163.57C46.958 163.748 47.2425 163.864 47.5421 163.908L56.1491 165.167C56.1497 165.167 56.1504 165.168 56.151 165.168C56.1512 165.168 56.1513 165.168 56.1514 165.168C56.6215 165.236 57.0631 165.435 57.4264 165.741C57.7903 166.047 58.0612 166.45 58.2084 166.902C58.3556 167.355 58.3732 167.84 58.2592 168.302C58.1453 168.764 57.9043 169.185 57.5636 169.517L51.3366 175.58C51.1194 175.792 50.9569 176.053 50.863 176.342C50.7692 176.63 50.7469 176.937 50.7979 177.236C50.7979 177.236 50.7979 177.236 50.7979 177.236L52.2663 185.794C52.2666 185.795 52.2669 185.797 52.2672 185.798C52.3491 186.268 52.298 186.75 52.1196 187.192C51.9405 187.635 51.6405 188.019 51.2538 188.3C50.867 188.581 50.4091 188.748 49.9322 188.781C49.4572 188.814 48.9824 188.713 48.5617 188.491C48.5601 188.49 48.5584 188.489 48.5568 188.488L40.8686 184.446C40.6004 184.305 40.3021 184.231 39.9992 184.231C39.6964 184.231 39.3981 184.305 39.1299 184.446C39.1299 184.446 39.1299 184.446 39.1299 184.446L31.4399 188.49C31.439 188.49 31.4381 188.491 31.4372 188.491C31.016 188.713 30.5411 188.813 30.066 188.78C29.5899 188.746 29.1329 188.579 28.7469 188.298C28.361 188.018 28.0615 187.634 27.8826 187.192C27.7043 186.751 27.653 186.268 27.7344 185.8C27.7347 185.798 27.7349 185.797 27.7351 185.795L29.2024 177.237C29.2537 176.938 29.2315 176.631 29.1377 176.342C29.0439 176.054 28.8814 175.793 28.6642 175.581Z" fill="#212121"/>
</svg>
