<svg width="92" height="181" viewBox="0 0 92 181" fill="none" xmlns="http://www.w3.org/2000/svg">
<rect x="0.5" y="0.5" width="91" height="180" rx="4.5" stroke="#9747FF" stroke-dasharray="10 5"/>
<path d="M20 46C20 38.4034 20.7488 31.2343 21.8188 26.7409C22.3539 24.1733 23.852 22.4613 26.7409 21.8188C31.4487 20.6419 38.4034 20 46 20C53.5966 20 60.5513 20.6419 65.2591 21.8188C68.148 22.4608 69.6461 24.1727 70.1812 26.7409C71.2512 31.2349 72 38.4034 72 46C72 53.5966 71.2512 60.7657 70.1812 65.2591C69.6461 67.8267 68.148 69.5387 65.2591 70.1812C60.5513 71.3581 53.5966 72 46 72C38.4034 72 31.4487 71.3581 26.7409 70.1812C23.852 69.5392 22.3539 67.8273 21.8188 65.2591C20.7488 60.7657 20 53.5966 20 46Z" fill="#FF6200"/>
<g clip-path="url(#clip0_55_1428)">
<path d="M54.9304 117.522V135.043H37.5217V117.522H54.9304ZM72 100V152H20V100H72ZM63.5217 143.522V108.93H28.9304V143.522H63.5217Z" fill="#00BC54"/>
</g>
<defs>
<clipPath id="clip0_55_1428">
<rect width="52" height="52" fill="white" transform="translate(20 100)"/>
</clipPath>
</defs>
</svg>
