<svg width="52" height="52" viewBox="0 0 52 52" fill="none" xmlns="http://www.w3.org/2000/svg">
<path d="M0 26C0 18.4034 0.7488 11.2343 1.81884 6.74093C2.35387 4.17329 3.85204 2.46133 6.74093 1.81884C11.4487 0.641911 18.4034 0 26 0C33.5966 0 40.5513 0.641911 45.2591 1.81884C48.148 2.46076 49.6461 4.17271 50.1812 6.74093C51.2512 11.2349 52 18.4034 52 26C52 33.5966 51.2512 40.7657 50.1812 45.2591C49.6461 47.8267 48.148 49.5387 45.2591 50.1812C40.5513 51.3581 33.5966 52 26 52C18.4034 52 11.4487 51.3581 6.74093 50.1812C3.85204 49.5392 2.35387 47.8273 1.81884 45.2591C0.7488 40.7657 0 33.5966 0 26Z" fill="#FF6200"/>
</svg>
