<svg width="70" height="48" viewBox="0 0 70 48" fill="none" xmlns="http://www.w3.org/2000/svg">
<path d="M8 8H14.1511C17.5961 8 20.6382 10.2468 21.6513 13.5395L29.5044 39.0619H21.4214C19.1247 39.0619 17.0966 37.564 16.4212 35.3689L8 8Z" fill="#212121"/>
<path d="M24.2479 8H30.399C33.844 8 36.8861 10.2468 37.8992 13.5395L45.7523 39.0619H37.6692C35.3726 39.0619 33.3445 37.564 32.6691 35.3689L24.2479 8Z" fill="#212121"/>
<path d="M40.4956 8H46.6467C50.0917 8 53.1338 10.2468 54.1469 13.5395L62 39.0619H53.917C51.6203 39.0619 49.5922 37.564 48.9168 35.3689L40.4956 8Z" fill="#212121"/>
</svg>
