<svg width="100" height="68" viewBox="0 0 100 68" fill="none" xmlns="http://www.w3.org/2000/svg">
<path d="M12 12H20.6571C25.5056 12 29.7871 15.1622 31.213 19.7963L42.2655 55.7168H30.8893C27.657 55.7168 24.8027 53.6086 23.8521 50.5193L12 12Z" fill="#212121"/>
<path d="M34.8674 12H43.5245C48.373 12 52.6545 15.1622 54.0804 19.7963L65.1328 55.7168H53.7567C50.5244 55.7168 47.67 53.6086 46.7195 50.5193L34.8674 12Z" fill="#212121"/>
<path d="M57.7345 12H66.3917C71.2402 12 75.5217 15.1622 76.9475 19.7963L88 55.7168H76.6239C73.3915 55.7168 70.5372 53.6086 69.5866 50.5193L57.7345 12Z" fill="#212121"/>
</svg>
